<svg width="1200" height="900" viewBox="0 0 1200 900" fill="none" xmlns="http://www.w3.org/2000/svg">
<rect width="1200" height="900" fill="#F8F2E8"/><text x="92" y="112" fill="#583F2B" font-family="Georgia" font-size="43" letter-spacing="7">SOLENNE</text><text x="890" y="103" fill="#8B725B" font-family="Arial" font-size="16">Rings&#160;&#160; Fine jewelry&#160;&#160; Stories</text>
<rect x="76" y="164" width="1048" height="618" rx="12" fill="#E9D8C4"/><circle cx="806" cy="419" r="192" fill="#C7A37A"/><circle cx="806" cy="419" r="122" fill="#F6E6CE"/><path d="M718 419C718 370 758 330 807 330C856 330 896 370 896 419C896 482 846 550 807 550C768 550 718 482 718 419Z" fill="#F9F4EC"/><circle cx="807" cy="407" r="37" fill="#5E91A7"/><path d="M210 580C260 440 382 351 526 353C610 354 674 393 719 451" stroke="#A98363" stroke-width="2"/>
<text x="128" y="255" fill="#583F2B" font-family="Georgia" font-size="67">Made to be<br/>kept close.</text><text x="132" y="365" fill="#80634D" font-family="Arial" font-size="21">Fine jewelry, considered slowly.</text><rect x="130" y="415" width="184" height="48" rx="24" fill="#583F2B"/><text x="168" y="446" fill="white" font-family="Arial" font-size="16" font-weight="700">Discover Solenne</text>
</svg>
